<svg width="18" height="20" viewBox="0 0 18 20" fill="none" xmlns="http://www.w3.org/2000/svg">
<path fill-rule="evenodd" clip-rule="evenodd" d="M18 14.0625C18 14.3555 17.8594 14.6211 17.6424 14.7891C17.4737 15.3906 17.4737 17.1055 17.6424 17.707C17.8594 17.8789 18 18.1445 18 18.4375V19.0625C18 19.582 17.5701 20 17.0357 20H3.85714C1.72768 20 0 18.3203 0 16.25V3.75C0 1.67969 1.72768 0 3.85714 0H17.0357C17.5701 0 18 0.417969 18 0.9375V14.0625ZM5.38393 5C5.25134 5 5.14286 5.10547 5.14286 5.23438V6.01562C5.14286 6.14453 5.25134 6.25 5.38393 6.25H13.9018C14.0344 6.25 14.1429 6.14453 14.1429 6.01562V5.23438C14.1429 5.10547 14.0344 5 13.9018 5H5.38393ZM5.14286 7.73438C5.14286 7.60547 5.25134 7.5 5.38393 7.5H13.9018C14.0344 7.5 14.1429 7.60547 14.1429 7.73438V8.51562C14.1429 8.64453 14.0344 8.75 13.9018 8.75H5.38393C5.25134 8.75 5.14286 8.64453 5.14286 8.51562V7.73438ZM3.85714 17.5H15.3241C15.2478 16.832 15.2478 15.668 15.3241 15H3.85714C3.15 15 2.57143 15.5625 2.57143 16.25C2.57143 16.9414 3.14598 17.5 3.85714 17.5Z" fill="#0B86C4"/>
<mask id="mask0" mask-type="alpha" maskUnits="userSpaceOnUse" x="0" y="0" width="18" height="20">
<path fill-rule="evenodd" clip-rule="evenodd" d="M18 14.0625C18 14.3555 17.8594 14.6211 17.6424 14.7891C17.4737 15.3906 17.4737 17.1055 17.6424 17.707C17.8594 17.8789 18 18.1445 18 18.4375V19.0625C18 19.582 17.5701 20 17.0357 20H3.85714C1.72768 20 0 18.3203 0 16.25V3.75C0 1.67969 1.72768 0 3.85714 0H17.0357C17.5701 0 18 0.417969 18 0.9375V14.0625ZM5.38393 5C5.25134 5 5.14286 5.10547 5.14286 5.23438V6.01562C5.14286 6.14453 5.25134 6.25 5.38393 6.25H13.9018C14.0344 6.25 14.1429 6.14453 14.1429 6.01562V5.23438C14.1429 5.10547 14.0344 5 13.9018 5H5.38393ZM5.14286 7.73438C5.14286 7.60547 5.25134 7.5 5.38393 7.5H13.9018C14.0344 7.5 14.1429 7.60547 14.1429 7.73438V8.51562C14.1429 8.64453 14.0344 8.75 13.9018 8.75H5.38393C5.25134 8.75 5.14286 8.64453 5.14286 8.51562V7.73438ZM3.85714 17.5H15.3241C15.2478 16.832 15.2478 15.668 15.3241 15H3.85714C3.15 15 2.57143 15.5625 2.57143 16.25C2.57143 16.9414 3.14598 17.5 3.85714 17.5Z" fill="white"/>
</mask>
<g mask="url(#mask0)">
</g>
</svg>
