<svg width="18" height="20" viewBox="0 0 18 20" fill="none" xmlns="http://www.w3.org/2000/svg">
<path fill-rule="evenodd" clip-rule="evenodd" d="M18 18.125C18 19.1602 17.1362 20 16.0714 20H1.92857C0.863839 20 0 19.1602 0 18.125V4.375C0 3.33984 0.863839 2.5 1.92857 2.5H3.85714V0.46875C3.85714 0.210938 4.07411 0 4.33929 0H5.94643C6.21161 0 6.42857 0.210938 6.42857 0.46875V2.5H11.5714V0.46875C11.5714 0.210938 11.7884 0 12.0536 0H13.6607C13.9259 0 14.1429 0.210938 14.1429 0.46875V2.5H16.0714C17.1362 2.5 18 3.33984 18 4.375V18.125ZM4.33929 11.25H5.94643C6.21161 11.25 6.42857 11.0391 6.42857 10.7812V9.21875C6.42857 8.96094 6.21161 8.75 5.94643 8.75H4.33929C4.07411 8.75 3.85714 8.96094 3.85714 9.21875V10.7812C3.85714 11.0391 4.07411 11.25 4.33929 11.25ZM10.2857 9.21875V10.7812C10.2857 11.0391 10.0688 11.25 9.80357 11.25H8.19643C7.93125 11.25 7.71429 11.0391 7.71429 10.7812V9.21875C7.71429 8.96094 7.93125 8.75 8.19643 8.75H9.80357C10.0688 8.75 10.2857 8.96094 10.2857 9.21875ZM14.1429 10.7812V9.21875C14.1429 8.96094 13.9259 8.75 13.6607 8.75H12.0536C11.7884 8.75 11.5714 8.96094 11.5714 9.21875V10.7812C11.5714 11.0391 11.7884 11.25 12.0536 11.25H13.6607C13.9259 11.25 14.1429 11.0391 14.1429 10.7812ZM10.2857 12.9688V14.5312C10.2857 14.7891 10.0688 15 9.80357 15H8.19643C7.93125 15 7.71429 14.7891 7.71429 14.5312V12.9688C7.71429 12.7109 7.93125 12.5 8.19643 12.5H9.80357C10.0688 12.5 10.2857 12.7109 10.2857 12.9688ZM6.42857 14.5312V12.9688C6.42857 12.7109 6.21161 12.5 5.94643 12.5H4.33929C4.07411 12.5 3.85714 12.7109 3.85714 12.9688V14.5312C3.85714 14.7891 4.07411 15 4.33929 15H5.94643C6.21161 15 6.42857 14.7891 6.42857 14.5312ZM14.1429 12.9688V14.5312C14.1429 14.7891 13.9259 15 13.6607 15H12.0536C11.7884 15 11.5714 14.7891 11.5714 14.5312V12.9688C11.5714 12.7109 11.7884 12.5 12.0536 12.5H13.6607C13.9259 12.5 14.1429 12.7109 14.1429 12.9688ZM16.0714 6.25V17.8906C16.0714 18.0195 15.9629 18.125 15.8304 18.125H2.16964C2.03705 18.125 1.92857 18.0195 1.92857 17.8906V6.25H16.0714Z" fill="#0B86C4"/>
<mask id="mask0" mask-type="alpha" maskUnits="userSpaceOnUse" x="0" y="0" width="18" height="20">
<path fill-rule="evenodd" clip-rule="evenodd" d="M18 18.125C18 19.1602 17.1362 20 16.0714 20H1.92857C0.863839 20 0 19.1602 0 18.125V4.375C0 3.33984 0.863839 2.5 1.92857 2.5H3.85714V0.46875C3.85714 0.210938 4.07411 0 4.33929 0H5.94643C6.21161 0 6.42857 0.210938 6.42857 0.46875V2.5H11.5714V0.46875C11.5714 0.210938 11.7884 0 12.0536 0H13.6607C13.9259 0 14.1429 0.210938 14.1429 0.46875V2.5H16.0714C17.1362 2.5 18 3.33984 18 4.375V18.125ZM4.33929 11.25H5.94643C6.21161 11.25 6.42857 11.0391 6.42857 10.7812V9.21875C6.42857 8.96094 6.21161 8.75 5.94643 8.75H4.33929C4.07411 8.75 3.85714 8.96094 3.85714 9.21875V10.7812C3.85714 11.0391 4.07411 11.25 4.33929 11.25ZM10.2857 9.21875V10.7812C10.2857 11.0391 10.0688 11.25 9.80357 11.25H8.19643C7.93125 11.25 7.71429 11.0391 7.71429 10.7812V9.21875C7.71429 8.96094 7.93125 8.75 8.19643 8.75H9.80357C10.0688 8.75 10.2857 8.96094 10.2857 9.21875ZM14.1429 10.7812V9.21875C14.1429 8.96094 13.9259 8.75 13.6607 8.75H12.0536C11.7884 8.75 11.5714 8.96094 11.5714 9.21875V10.7812C11.5714 11.0391 11.7884 11.25 12.0536 11.25H13.6607C13.9259 11.25 14.1429 11.0391 14.1429 10.7812ZM10.2857 12.9688V14.5312C10.2857 14.7891 10.0688 15 9.80357 15H8.19643C7.93125 15 7.71429 14.7891 7.71429 14.5312V12.9688C7.71429 12.7109 7.93125 12.5 8.19643 12.5H9.80357C10.0688 12.5 10.2857 12.7109 10.2857 12.9688ZM6.42857 14.5312V12.9688C6.42857 12.7109 6.21161 12.5 5.94643 12.5H4.33929C4.07411 12.5 3.85714 12.7109 3.85714 12.9688V14.5312C3.85714 14.7891 4.07411 15 4.33929 15H5.94643C6.21161 15 6.42857 14.7891 6.42857 14.5312ZM14.1429 12.9688V14.5312C14.1429 14.7891 13.9259 15 13.6607 15H12.0536C11.7884 15 11.5714 14.7891 11.5714 14.5312V12.9688C11.5714 12.7109 11.7884 12.5 12.0536 12.5H13.6607C13.9259 12.5 14.1429 12.7109 14.1429 12.9688ZM16.0714 6.25V17.8906C16.0714 18.0195 15.9629 18.125 15.8304 18.125H2.16964C2.03705 18.125 1.92857 18.0195 1.92857 17.8906V6.25H16.0714Z" fill="white"/>
</mask>
<g mask="url(#mask0)">
</g>
</svg>
