<svg width="20" height="16" viewBox="0 0 20 16" fill="none" xmlns="http://www.w3.org/2000/svg">
<path fill-rule="evenodd" clip-rule="evenodd" d="M19.5312 13C19.7891 13 20 13.2109 20 13.4688V15.0312C20 15.2891 19.7891 15.5 19.5312 15.5H0.46875C0.210938 15.5 0 15.2891 0 15.0312V0.96875C0 0.710938 0.210938 0.5 0.46875 0.5H2.03125C2.28906 0.5 2.5 0.710938 2.5 0.96875V13H19.5312ZM7.5 11.2812V8.46875C7.5 8.21094 7.28906 8 7.03125 8H5.46875C5.21094 8 5 8.21094 5 8.46875V11.2812C5 11.5391 5.21094 11.75 5.46875 11.75H7.03125C7.28906 11.75 7.5 11.5391 7.5 11.2812ZM15 5.96875V11.2812C15 11.5391 14.7891 11.75 14.5312 11.75H12.9688C12.7109 11.75 12.5 11.5391 12.5 11.2812V5.96875C12.5 5.71094 12.7109 5.5 12.9688 5.5H14.5312C14.7891 5.5 15 5.71094 15 5.96875ZM11.25 11.2812V3.46875C11.25 3.21094 11.0391 3 10.7812 3H9.21875C8.96094 3 8.75 3.21094 8.75 3.46875V11.2812C8.75 11.5391 8.96094 11.75 9.21875 11.75H10.7812C11.0391 11.75 11.25 11.5391 11.25 11.2812ZM18.75 2.21875V11.2812C18.75 11.5391 18.5391 11.75 18.2812 11.75H16.7188C16.4609 11.75 16.25 11.5391 16.25 11.2812V2.21875C16.25 1.96094 16.4609 1.75 16.7188 1.75H18.2812C18.5391 1.75 18.75 1.96094 18.75 2.21875Z" fill="#0B86C4"/>
<mask id="mask0" mask-type="alpha" maskUnits="userSpaceOnUse" x="0" y="0" width="20" height="16">
<path fill-rule="evenodd" clip-rule="evenodd" d="M19.5312 13C19.7891 13 20 13.2109 20 13.4688V15.0312C20 15.2891 19.7891 15.5 19.5312 15.5H0.46875C0.210938 15.5 0 15.2891 0 15.0312V0.96875C0 0.710938 0.210938 0.5 0.46875 0.5H2.03125C2.28906 0.5 2.5 0.710938 2.5 0.96875V13H19.5312ZM7.5 11.2812V8.46875C7.5 8.21094 7.28906 8 7.03125 8H5.46875C5.21094 8 5 8.21094 5 8.46875V11.2812C5 11.5391 5.21094 11.75 5.46875 11.75H7.03125C7.28906 11.75 7.5 11.5391 7.5 11.2812ZM15 5.96875V11.2812C15 11.5391 14.7891 11.75 14.5312 11.75H12.9688C12.7109 11.75 12.5 11.5391 12.5 11.2812V5.96875C12.5 5.71094 12.7109 5.5 12.9688 5.5H14.5312C14.7891 5.5 15 5.71094 15 5.96875ZM11.25 11.2812V3.46875C11.25 3.21094 11.0391 3 10.7812 3H9.21875C8.96094 3 8.75 3.21094 8.75 3.46875V11.2812C8.75 11.5391 8.96094 11.75 9.21875 11.75H10.7812C11.0391 11.75 11.25 11.5391 11.25 11.2812ZM18.75 2.21875V11.2812C18.75 11.5391 18.5391 11.75 18.2812 11.75H16.7188C16.4609 11.75 16.25 11.5391 16.25 11.2812V2.21875C16.25 1.96094 16.4609 1.75 16.7188 1.75H18.2812C18.5391 1.75 18.75 1.96094 18.75 2.21875Z" fill="white"/>
</mask>
<g mask="url(#mask0)">
</g>
</svg>
