<svg width="20" height="20" viewBox="0 0 20 20" fill="none" xmlns="http://www.w3.org/2000/svg">
<path fill-rule="evenodd" clip-rule="evenodd" d="M19.0392 12.332L17.3745 11.3711C17.5418 10.4647 17.5418 9.53535 17.3745 8.62893L19.0393 7.66803C19.2294 7.55827 19.3176 7.33135 19.2525 7.12174C18.8201 5.72948 18.0818 4.47166 17.1162 3.42698C16.9674 3.26586 16.7268 3.22931 16.5369 3.33893L14.8734 4.29967C14.1735 3.69999 13.3689 3.23476 12.5 2.92741V1.00616C12.5 0.786352 12.3472 0.596391 12.1327 0.548227C10.6983 0.226001 9.23181 0.24186 7.86634 0.548501C7.65221 0.596617 7.50005 0.786762 7.50005 1.00624V2.92745C6.63117 3.23481 5.82654 3.70004 5.12666 4.29971L3.46322 3.33897C3.27324 3.22934 3.03268 3.2659 2.88384 3.42702C1.91826 4.4717 1.17998 5.72952 0.747554 7.12178C0.682437 7.33143 0.770679 7.55834 0.960796 7.66807L2.62548 8.62897C2.45828 9.53537 2.45828 10.4647 2.62548 11.3711L0.960757 12.332C0.77064 12.4418 0.682398 12.6687 0.747515 12.8783C1.17994 14.2706 1.91826 15.5284 2.8838 16.5731C3.03264 16.7342 3.2732 16.7707 3.46318 16.6611L5.12662 15.7004C5.82649 16.3001 6.63112 16.7653 7.50002 17.0726V18.9939C7.50002 19.2137 7.65287 19.4037 7.86732 19.4518C9.30169 19.774 10.7682 19.7582 12.1337 19.4515C12.3478 19.4034 12.5 19.2133 12.5 18.9938V17.0726C13.3689 16.7653 14.1735 16.3 14.8734 15.7004L16.5368 16.6611C16.7268 16.7707 16.9674 16.7342 17.1162 16.5731C18.0818 15.5284 18.8201 14.2706 19.2525 12.8783C19.3176 12.6687 19.2294 12.4417 19.0392 12.332ZM10 6.87502C11.7231 6.87502 13.125 8.2769 13.125 10C13.125 11.7231 11.7231 13.125 10 13.125C8.27689 13.125 6.87502 11.7231 6.87502 10C6.87502 8.2769 8.27689 6.87502 10 6.87502Z" fill="#0B86C4"/>
<mask id="mask0" mask-type="alpha" maskUnits="userSpaceOnUse" x="0" y="0" width="20" height="20">
<path fill-rule="evenodd" clip-rule="evenodd" d="M19.0392 12.332L17.3745 11.3711C17.5418 10.4647 17.5418 9.53535 17.3745 8.62893L19.0393 7.66803C19.2294 7.55827 19.3176 7.33135 19.2525 7.12174C18.8201 5.72948 18.0818 4.47166 17.1162 3.42698C16.9674 3.26586 16.7268 3.22931 16.5369 3.33893L14.8734 4.29967C14.1735 3.69999 13.3689 3.23476 12.5 2.92741V1.00616C12.5 0.786352 12.3472 0.596391 12.1327 0.548227C10.6983 0.226001 9.23181 0.24186 7.86634 0.548501C7.65221 0.596617 7.50005 0.786762 7.50005 1.00624V2.92745C6.63117 3.23481 5.82654 3.70004 5.12666 4.29971L3.46322 3.33897C3.27324 3.22934 3.03268 3.2659 2.88384 3.42702C1.91826 4.4717 1.17998 5.72952 0.747554 7.12178C0.682437 7.33143 0.770679 7.55834 0.960796 7.66807L2.62548 8.62897C2.45828 9.53537 2.45828 10.4647 2.62548 11.3711L0.960757 12.332C0.77064 12.4418 0.682398 12.6687 0.747515 12.8783C1.17994 14.2706 1.91826 15.5284 2.8838 16.5731C3.03264 16.7342 3.2732 16.7707 3.46318 16.6611L5.12662 15.7004C5.82649 16.3001 6.63112 16.7653 7.50002 17.0726V18.9939C7.50002 19.2137 7.65287 19.4037 7.86732 19.4518C9.30169 19.774 10.7682 19.7582 12.1337 19.4515C12.3478 19.4034 12.5 19.2133 12.5 18.9938V17.0726C13.3689 16.7653 14.1735 16.3 14.8734 15.7004L16.5368 16.6611C16.7268 16.7707 16.9674 16.7342 17.1162 16.5731C18.0818 15.5284 18.8201 14.2706 19.2525 12.8783C19.3176 12.6687 19.2294 12.4417 19.0392 12.332ZM10 6.87502C11.7231 6.87502 13.125 8.2769 13.125 10C13.125 11.7231 11.7231 13.125 10 13.125C8.27689 13.125 6.87502 11.7231 6.87502 10C6.87502 8.2769 8.27689 6.87502 10 6.87502Z" fill="white"/>
</mask>
<g mask="url(#mask0)">
</g>
</svg>
