<svg width="20" height="18" viewBox="0 0 20 18" fill="none" xmlns="http://www.w3.org/2000/svg">
<path fill-rule="evenodd" clip-rule="evenodd" d="M16.5425 6.5H19.0625C19.5803 6.5 20 6.91973 20 7.4375V10.5625C20 11.0803 19.5803 11.5 19.0625 11.5H18.75V15.875C18.75 16.9105 17.9105 17.75 16.875 17.75H3.125C2.08945 17.75 1.25 16.9105 1.25 15.875V11.5H0.9375C0.419727 11.5 0 11.0803 0 10.5625V7.4375C0 6.91973 0.419727 6.5 0.9375 6.5H3.4575C2.8625 5.83605 2.5 4.95961 2.5 4C2.5 1.93223 4.18223 0.25 6.25 0.25C7.79738 0.25 8.85434 0.960625 10.0003 2.36523C11.0648 1.05832 12.1095 0.25 13.75 0.25C15.8178 0.25 17.5 1.93223 17.5 4C17.5 4.95961 17.1375 5.83605 16.5425 6.5ZM13.75 2.75C13.0986 2.75 11.875 3.0625 10.9375 5.25H13.75C14.4393 5.25 15 4.68926 15 4C15 3.31074 14.4393 2.75 13.75 2.75ZM6.25 2.75C6.90141 2.75 8.125 3.0625 9.0625 5.25H6.25C5.56074 5.25 5 4.68926 5 4C5 3.31074 5.56074 2.75 6.25 2.75ZM11.875 7.75H8.125V14.9375C8.125 15.4553 8.54473 15.875 9.0625 15.875H10.9375C11.4553 15.875 11.875 15.4553 11.875 14.9375V7.75Z" fill="#0B86C4"/>
<mask id="mask0" mask-type="alpha" maskUnits="userSpaceOnUse" x="0" y="0" width="20" height="18">
<path fill-rule="evenodd" clip-rule="evenodd" d="M16.5425 6.5H19.0625C19.5803 6.5 20 6.91973 20 7.4375V10.5625C20 11.0803 19.5803 11.5 19.0625 11.5H18.75V15.875C18.75 16.9105 17.9105 17.75 16.875 17.75H3.125C2.08945 17.75 1.25 16.9105 1.25 15.875V11.5H0.9375C0.419727 11.5 0 11.0803 0 10.5625V7.4375C0 6.91973 0.419727 6.5 0.9375 6.5H3.4575C2.8625 5.83605 2.5 4.95961 2.5 4C2.5 1.93223 4.18223 0.25 6.25 0.25C7.79738 0.25 8.85434 0.960625 10.0003 2.36523C11.0648 1.05832 12.1095 0.25 13.75 0.25C15.8178 0.25 17.5 1.93223 17.5 4C17.5 4.95961 17.1375 5.83605 16.5425 6.5ZM13.75 2.75C13.0986 2.75 11.875 3.0625 10.9375 5.25H13.75C14.4393 5.25 15 4.68926 15 4C15 3.31074 14.4393 2.75 13.75 2.75ZM6.25 2.75C6.90141 2.75 8.125 3.0625 9.0625 5.25H6.25C5.56074 5.25 5 4.68926 5 4C5 3.31074 5.56074 2.75 6.25 2.75ZM11.875 7.75H8.125V14.9375C8.125 15.4553 8.54473 15.875 9.0625 15.875H10.9375C11.4553 15.875 11.875 15.4553 11.875 14.9375V7.75Z" fill="white"/>
</mask>
<g mask="url(#mask0)">
</g>
</svg>
