<svg width="20" height="12" viewBox="0 0 20 12" fill="none" xmlns="http://www.w3.org/2000/svg">
<path fill-rule="evenodd" clip-rule="evenodd" d="M13.2812 3.28125C13.2812 1.46906 11.8122 0 10 0C8.18781 0 6.71875 1.46906 6.71875 3.28125C6.71875 5.09344 8.18781 6.5625 10 6.5625C11.8122 6.5625 13.2812 5.09344 13.2812 3.28125ZM12.2963 6.48031L13.5457 6.79269C14.5473 7.04309 15.25 7.94303 15.25 8.9755V10.875C15.25 11.4963 14.7463 12 14.125 12H5.875C5.25369 12 4.75 11.4963 4.75 10.875V8.9755C4.75 7.94303 5.45266 7.04309 6.45431 6.79269L7.70375 6.48031C8.89734 7.33884 10.7598 7.58547 12.2963 6.48031ZM16.5 7.375C17.7081 7.375 18.6875 6.39563 18.6875 5.1875C18.6875 3.97937 17.7081 3 16.5 3C15.2919 3 14.3125 3.97937 14.3125 5.1875C14.3125 6.39563 15.2919 7.375 16.5 7.375ZM5.6875 5.1875C5.6875 6.39563 4.70813 7.375 3.5 7.375C2.29187 7.375 1.3125 6.39563 1.3125 5.1875C1.3125 3.97937 2.29187 3 3.5 3C4.70813 3 5.6875 3.97937 5.6875 5.1875ZM4.25 10.875V8.9755C4.25 8.45828 4.39353 7.96912 4.64697 7.55053C3.70984 8.01053 2.66772 7.82266 1.96916 7.32022L1.13619 7.52847C0.468438 7.69537 0 8.29537 0 8.98366V10.25C0 10.6642 0.335781 11 0.75 11H4.25528C4.25193 10.9584 4.25017 10.9167 4.25 10.875ZM18.0308 7.32019L18.8638 7.52844C19.5316 7.69537 20 8.29537 20 8.98366V10.25C20 10.6642 19.6642 11 19.25 11H15.7447C15.7479 10.9587 15.75 10.9171 15.75 10.875V8.9755C15.75 8.45628 15.6053 7.96541 15.35 7.54575C16.128 7.92122 17.1582 7.94788 18.0308 7.32019Z" fill="#0B86C4"/>
<mask id="mask0" mask-type="alpha" maskUnits="userSpaceOnUse" x="0" y="0" width="20" height="12">
<path fill-rule="evenodd" clip-rule="evenodd" d="M13.2812 3.28125C13.2812 1.46906 11.8122 0 10 0C8.18781 0 6.71875 1.46906 6.71875 3.28125C6.71875 5.09344 8.18781 6.5625 10 6.5625C11.8122 6.5625 13.2812 5.09344 13.2812 3.28125ZM12.2963 6.48031L13.5457 6.79269C14.5473 7.04309 15.25 7.94303 15.25 8.9755V10.875C15.25 11.4963 14.7463 12 14.125 12H5.875C5.25369 12 4.75 11.4963 4.75 10.875V8.9755C4.75 7.94303 5.45266 7.04309 6.45431 6.79269L7.70375 6.48031C8.89734 7.33884 10.7598 7.58547 12.2963 6.48031ZM16.5 7.375C17.7081 7.375 18.6875 6.39563 18.6875 5.1875C18.6875 3.97937 17.7081 3 16.5 3C15.2919 3 14.3125 3.97937 14.3125 5.1875C14.3125 6.39563 15.2919 7.375 16.5 7.375ZM5.6875 5.1875C5.6875 6.39563 4.70813 7.375 3.5 7.375C2.29187 7.375 1.3125 6.39563 1.3125 5.1875C1.3125 3.97937 2.29187 3 3.5 3C4.70813 3 5.6875 3.97937 5.6875 5.1875ZM4.25 10.875V8.9755C4.25 8.45828 4.39353 7.96912 4.64697 7.55053C3.70984 8.01053 2.66772 7.82266 1.96916 7.32022L1.13619 7.52847C0.468438 7.69537 0 8.29537 0 8.98366V10.25C0 10.6642 0.335781 11 0.75 11H4.25528C4.25193 10.9584 4.25017 10.9167 4.25 10.875ZM18.0308 7.32019L18.8638 7.52844C19.5316 7.69537 20 8.29537 20 8.98366V10.25C20 10.6642 19.6642 11 19.25 11H15.7447C15.7479 10.9587 15.75 10.9171 15.75 10.875V8.9755C15.75 8.45628 15.6053 7.96541 15.35 7.54575C16.128 7.92122 17.1582 7.94788 18.0308 7.32019Z" fill="white"/>
</mask>
<g mask="url(#mask0)">
</g>
</svg>
